<?xml version="1.0" encoding="utf-8" ?>
<svg xmlns="http://www.w3.org/2000/svg" xmlns:xlink="http://www.w3.org/1999/xlink" width="250" height="162">
	<path fill="rgb(139,160,215)" stroke="none" d="M8 0L242 0Q242.205 0 242.408 0.009326Q242.612 0.018652 242.814 0.037285Q243.016 0.055918 243.215 0.0838199Q243.415 0.111722 243.612 0.148836Q243.808 0.18595 244.002 0.2322Q244.196 0.27845 244.387 0.333743Q244.577 0.389035 244.764 0.453256Q244.951 0.517478 245.133 0.590497Q245.316 0.663517 245.494 0.745186Q245.672 0.826855 245.845 0.917006Q246.018 1.00716 246.186 1.10561Q246.354 1.20406 246.516 1.31061Q246.678 1.41715 246.834 1.53158Q246.991 1.64601 247.141 1.76809Q247.291 1.89016 247.434 2.01963Q247.578 2.14911 247.714 2.28571Q247.851 2.42232 247.98 2.56578Q248.11 2.70925 248.232 2.85927Q248.354 3.0093 248.468 3.16558Q248.583 3.32186 248.689 3.48408Q248.796 3.6463 248.894 3.81412Q248.993 3.98195 249.083 4.15504Q249.173 4.32813 249.255 4.50613Q249.337 4.68413 249.41 4.86668Q249.483 5.04923 249.547 5.23595Q249.611 5.42268 249.666 5.61319Q249.722 5.80371 249.768 5.99764Q249.814 6.19157 249.851 6.3885Q249.888 6.58544 249.916 6.78498Q249.944 6.98453 249.963 7.18627Q249.981 7.38802 249.991 7.59155Q250 7.79509 250 8L250 120Q250 120.205 249.991 120.408Q249.981 120.612 249.963 120.814Q249.944 121.015 249.916 121.215Q249.888 121.415 249.851 121.612Q249.814 121.808 249.768 122.002Q249.722 122.196 249.666 122.387Q249.611 122.577 249.547 122.764Q249.483 122.951 249.41 123.133Q249.337 123.316 249.255 123.494Q249.173 123.672 249.083 123.845Q248.993 124.018 248.894 124.186Q248.796 124.354 248.689 124.516Q248.583 124.678 248.468 124.834Q248.354 124.991 248.232 125.141Q248.11 125.291 247.98 125.434Q247.851 125.578 247.714 125.714Q247.578 125.851 247.434 125.98Q247.291 126.11 247.141 126.232Q246.991 126.354 246.834 126.468Q246.678 126.583 246.516 126.689Q246.354 126.796 246.186 126.894Q246.018 126.993 245.845 127.083Q245.672 127.173 245.494 127.255Q245.316 127.336 245.133 127.41Q244.951 127.483 244.764 127.547Q244.577 127.611 244.387 127.666Q244.196 127.722 244.002 127.768Q243.808 127.814 243.612 127.851Q243.415 127.888 243.215 127.916Q243.016 127.944 242.814 127.963Q242.612 127.981 242.408 127.991Q242.205 128 242 128L8 128Q7.79509 128 7.59155 127.991Q7.38802 127.981 7.18627 127.963Q6.98453 127.944 6.78498 127.916Q6.58544 127.888 6.3885 127.851Q6.19157 127.814 5.99764 127.768Q5.80371 127.722 5.6132 127.666Q5.42268 127.611 5.23595 127.547Q5.04923 127.483 4.86668 127.41Q4.68413 127.336 4.50613 127.255Q4.32813 127.173 4.15504 127.083Q3.98195 126.993 3.81412 126.894Q3.6463 126.796 3.48408 126.689Q3.32186 126.583 3.16558 126.468Q3.0093 126.354 2.85927 126.232Q2.70925 126.11 2.56578 125.98Q2.42232 125.851 2.28571 125.714Q2.14911 125.578 2.01963 125.434Q1.89016 125.291 1.76809 125.141Q1.64601 124.991 1.53158 124.834Q1.41715 124.678 1.31061 124.516Q1.20406 124.354 1.10561 124.186Q1.00716 124.018 0.917006 123.845Q0.826855 123.672 0.745186 123.494Q0.663517 123.316 0.590497 123.133Q0.517478 122.951 0.453256 122.764Q0.389035 122.577 0.333743 122.387Q0.27845 122.196 0.2322 122.002Q0.18595 121.808 0.148836 121.612Q0.111722 121.415 0.0838199 121.215Q0.055918 121.015 0.037285 120.814Q0.018652 120.612 0.009326 120.408Q0 120.205 0 120L0 8Q0 7.79509 0.009326 7.59155Q0.018652 7.38802 0.037285 7.18627Q0.055918 6.98453 0.0838199 6.78498Q0.111722 6.58544 0.148836 6.3885Q0.18595 6.19157 0.2322 5.99764Q0.27845 5.80371 0.333743 5.6132Q0.389035 5.42268 0.453256 5.23595Q0.517478 5.04923 0.590497 4.86668Q0.663517 4.68413 0.745186 4.50613Q0.826855 4.32813 0.917006 4.15504Q1.00716 3.98195 1.10561 3.81412Q1.20406 3.6463 1.31061 3.48408Q1.41715 3.32186 1.53158 3.16558Q1.64601 3.0093 1.76809 2.85927Q1.89016 2.70925 2.01963 2.56578Q2.14911 2.42232 2.28571 2.28571Q2.42232 2.14911 2.56578 2.01963Q2.70925 1.89016 2.85927 1.76809Q3.0093 1.64601 3.16558 1.53158Q3.32186 1.41715 3.48408 1.31061Q3.6463 1.20406 3.81412 1.10561Q3.98195 1.00716 4.15504 0.917006Q4.32813 0.826855 4.50613 0.745186Q4.68413 0.663517 4.86668 0.590497Q5.04923 0.517478 5.23595 0.453256Q5.42268 0.389035 5.61319 0.333743Q5.80371 0.27845 5.99764 0.2322Q6.19157 0.18595 6.3885 0.148836Q6.58544 0.111722 6.78498 0.0838199Q6.98453 0.055918 7.18627 0.037285Q7.38802 0.018652 7.59155 0.009326Q7.79509 0 8 0Z"/>
	<path fill="rgb(139,160,215)" stroke="none" transform="translate(20 134)" d="M8 0L202 0Q202.205 0 202.408 0.009326Q202.612 0.018652 202.814 0.037285Q203.016 0.055918 203.215 0.0838199Q203.415 0.111722 203.612 0.148836Q203.808 0.18595 204.002 0.2322Q204.196 0.27845 204.387 0.333743Q204.577 0.389035 204.764 0.453256Q204.951 0.517478 205.133 0.590497Q205.316 0.663517 205.494 0.745186Q205.672 0.826855 205.845 0.917006Q206.018 1.00716 206.186 1.10561Q206.354 1.20406 206.516 1.31061Q206.678 1.41715 206.834 1.53158Q206.991 1.64601 207.141 1.76809Q207.291 1.89016 207.434 2.01963Q207.578 2.14911 207.714 2.28571Q207.851 2.42232 207.98 2.56578Q208.11 2.70925 208.232 2.85927Q208.354 3.0093 208.468 3.16558Q208.583 3.32186 208.689 3.48408Q208.796 3.6463 208.894 3.81412Q208.993 3.98195 209.083 4.15504Q209.173 4.32813 209.255 4.50613Q209.337 4.68413 209.41 4.86668Q209.483 5.04923 209.547 5.23595Q209.611 5.42268 209.666 5.61319Q209.722 5.80371 209.768 5.99764Q209.814 6.19157 209.851 6.3885Q209.888 6.58544 209.916 6.78498Q209.944 6.98453 209.963 7.18627Q209.981 7.38802 209.991 7.59155Q210 7.79509 210 8L210 20Q210 20.2049 209.991 20.4084Q209.981 20.612 209.963 20.8137Q209.944 21.0155 209.916 21.215Q209.888 21.4146 209.851 21.6115Q209.814 21.8084 209.768 22.0024Q209.722 22.1963 209.666 22.3868Q209.611 22.5773 209.547 22.7641Q209.483 22.9508 209.41 23.1333Q209.337 23.3159 209.255 23.4939Q209.173 23.6719 209.083 23.845Q208.993 24.0181 208.894 24.1859Q208.796 24.3537 208.689 24.5159Q208.583 24.6781 208.468 24.8344Q208.354 24.9907 208.232 25.1407Q208.11 25.2908 207.98 25.4342Q207.851 25.5777 207.714 25.7143Q207.578 25.8509 207.434 25.9804Q207.291 26.1098 207.141 26.2319Q206.991 26.354 206.834 26.4684Q206.678 26.5829 206.516 26.6894Q206.354 26.7959 206.186 26.8944Q206.018 26.9928 205.845 27.083Q205.672 27.1731 205.494 27.2548Q205.316 27.3365 205.133 27.4095Q204.951 27.4825 204.764 27.5467Q204.577 27.611 204.387 27.6663Q204.196 27.7216 204.002 27.7678Q203.808 27.8141 203.612 27.8512Q203.415 27.8883 203.215 27.9162Q203.016 27.9441 202.814 27.9627Q202.612 27.9813 202.408 27.9907Q202.205 28 202 28L8 28Q7.79509 28 7.59155 27.9907Q7.38802 27.9813 7.18627 27.9627Q6.98453 27.9441 6.78498 27.9162Q6.58544 27.8883 6.3885 27.8512Q6.19157 27.8141 5.99764 27.7678Q5.80371 27.7216 5.6132 27.6663Q5.42268 27.611 5.23595 27.5467Q5.04923 27.4825 4.86668 27.4095Q4.68413 27.3365 4.50613 27.2548Q4.32813 27.1732 4.15504 27.083Q3.98195 26.9928 3.81412 26.8944Q3.6463 26.7959 3.48408 26.6894Q3.32186 26.5829 3.16558 26.4684Q3.0093 26.354 2.85927 26.2319Q2.70925 26.1098 2.56578 25.9804Q2.42232 25.8509 2.28571 25.7143Q2.14911 25.5777 2.01963 25.4342Q1.89016 25.2908 1.76809 25.1407Q1.64601 24.9907 1.53158 24.8344Q1.41715 24.6781 1.31061 24.5159Q1.20406 24.3537 1.10561 24.1859Q1.00716 24.0181 0.917006 23.845Q0.826855 23.6719 0.745186 23.4939Q0.663517 23.3159 0.590497 23.1333Q0.517478 22.9508 0.453256 22.7641Q0.389035 22.5773 0.333743 22.3868Q0.27845 22.1963 0.2322 22.0024Q0.18595 21.8084 0.148836 21.6115Q0.111722 21.4146 0.0838199 21.215Q0.055918 21.0155 0.037285 20.8137Q0.018652 20.612 0.009326 20.4084Q0 20.2049 0 20L0 8Q0 7.79509 0.009326 7.59155Q0.018652 7.38802 0.037285 7.18627Q0.055918 6.98453 0.0838199 6.78498Q0.111722 6.58544 0.148836 6.3885Q0.18595 6.19157 0.2322 5.99764Q0.27845 5.80371 0.333743 5.6132Q0.389035 5.42268 0.453256 5.23595Q0.517478 5.04923 0.590497 4.86668Q0.663517 4.68413 0.745186 4.50613Q0.826855 4.32813 0.917006 4.15504Q1.00716 3.98195 1.10561 3.81412Q1.20406 3.6463 1.31061 3.48408Q1.41715 3.32186 1.53158 3.16558Q1.64601 3.0093 1.76809 2.85927Q1.89016 2.70925 2.01963 2.56578Q2.14911 2.42232 2.28571 2.28571Q2.42232 2.14911 2.56578 2.01963Q2.70925 1.89016 2.85927 1.76809Q3.0093 1.64601 3.16558 1.53158Q3.32186 1.41715 3.48408 1.31061Q3.6463 1.20406 3.81412 1.10561Q3.98195 1.00716 4.15504 0.917006Q4.32813 0.826855 4.50613 0.745186Q4.68413 0.663517 4.86668 0.590497Q5.04923 0.517478 5.23595 0.453256Q5.42268 0.389035 5.61319 0.333743Q5.80371 0.27845 5.99764 0.2322Q6.19157 0.18595 6.3885 0.148836Q6.58544 0.111722 6.78498 0.0838199Q6.98453 0.055918 7.18627 0.037285Q7.38802 0.018652 7.59155 0.009326Q7.79509 0 8 0Z"/>

</svg>