<?xml version="1.0" encoding="utf-8" ?>
<svg xmlns="http://www.w3.org/2000/svg" xmlns:xlink="http://www.w3.org/1999/xlink" width="220" height="160">
	<path fill="rgb(246,106,130)" stroke="none" d="M17 0L203 0Q203.435 0 203.868 0.0198178Q204.3 0.0396355 204.729 0.0792306Q205.158 0.118826 205.582 0.178117Q206.006 0.237409 206.424 0.316276Q206.843 0.395143 207.255 0.493425Q207.667 0.591707 208.072 0.709203Q208.477 0.826699 208.874 0.96317Q209.27 1.09964 209.658 1.25481Q210.046 1.40997 210.424 1.58352Q210.803 1.75707 211.171 1.94864Q211.538 2.14021 211.895 2.34942Q212.252 2.55862 212.596 2.78504Q212.941 3.01145 213.273 3.25461Q213.605 3.49777 213.924 3.75718Q214.243 4.01659 214.548 4.29172Q214.853 4.56685 215.143 4.85714Q215.433 5.14743 215.708 5.45229Q215.983 5.75715 216.243 6.07595Q216.502 6.39475 216.745 6.72685Q216.989 7.05895 217.215 7.40366Q217.441 7.74838 217.651 8.10501Q217.86 8.46164 218.051 8.82945Q218.243 9.19727 218.417 9.57552Q218.59 9.95377 218.745 10.3417Q218.9 10.7296 219.037 11.1264Q219.173 11.5232 219.291 11.928Q219.408 12.3329 219.507 12.745Q219.605 13.1571 219.684 13.5756Q219.763 13.9941 219.822 14.4181Q219.881 14.8421 219.921 15.2708Q219.96 15.6995 219.98 16.1321Q220 16.5646 220 17L220 113Q220 113.435 219.98 113.868Q219.96 114.3 219.921 114.729Q219.881 115.158 219.822 115.582Q219.763 116.006 219.684 116.424Q219.605 116.843 219.507 117.255Q219.408 117.667 219.291 118.072Q219.173 118.477 219.037 118.874Q218.9 119.27 218.745 119.658Q218.59 120.046 218.417 120.424Q218.243 120.803 218.051 121.171Q217.86 121.538 217.651 121.895Q217.441 122.252 217.215 122.596Q216.989 122.941 216.745 123.273Q216.502 123.605 216.243 123.924Q215.983 124.243 215.708 124.548Q215.433 124.853 215.143 125.143Q214.853 125.433 214.548 125.708Q214.243 125.983 213.924 126.243Q213.605 126.502 213.273 126.745Q212.941 126.989 212.596 127.215Q212.252 127.441 211.895 127.651Q211.538 127.86 211.171 128.051Q210.803 128.243 210.424 128.416Q210.046 128.59 209.658 128.745Q209.27 128.9 208.874 129.037Q208.477 129.173 208.072 129.291Q207.667 129.408 207.255 129.507Q206.843 129.605 206.424 129.684Q206.006 129.763 205.582 129.822Q205.158 129.881 204.729 129.921Q204.3 129.96 203.868 129.98Q203.435 130 203 130L17 130Q16.5646 130 16.1321 129.98Q15.6995 129.96 15.2708 129.921Q14.8421 129.881 14.4181 129.822Q13.9941 129.763 13.5756 129.684Q13.1571 129.605 12.745 129.507Q12.3329 129.408 11.928 129.291Q11.5232 129.173 11.1264 129.037Q10.7296 128.9 10.3417 128.745Q9.95377 128.59 9.57552 128.416Q9.19727 128.243 8.82945 128.051Q8.46164 127.86 8.10501 127.651Q7.74838 127.441 7.40366 127.215Q7.05895 126.989 6.72685 126.745Q6.39475 126.502 6.07595 126.243Q5.75715 125.983 5.45229 125.708Q5.14743 125.433 4.85714 125.143Q4.56685 124.853 4.29172 124.548Q4.01659 124.243 3.75718 123.924Q3.49777 123.605 3.25461 123.273Q3.01145 122.941 2.78504 122.596Q2.55862 122.252 2.34942 121.895Q2.14021 121.538 1.94864 121.171Q1.75707 120.803 1.58352 120.424Q1.40997 120.046 1.25481 119.658Q1.09964 119.27 0.96317 118.874Q0.826699 118.477 0.709203 118.072Q0.591707 117.667 0.493425 117.255Q0.395143 116.843 0.316276 116.424Q0.237409 116.006 0.178117 115.582Q0.118826 115.158 0.0792306 114.729Q0.0396355 114.3 0.0198178 113.868Q0 113.435 0 113L0 17Q0 16.5646 0.0198178 16.1321Q0.0396355 15.6995 0.0792306 15.2708Q0.118826 14.8421 0.178117 14.4181Q0.237409 13.9941 0.316276 13.5756Q0.395143 13.1571 0.493425 12.745Q0.591707 12.3329 0.709203 11.928Q0.826699 11.5232 0.96317 11.1264Q1.09964 10.7296 1.25481 10.3417Q1.40997 9.95377 1.58352 9.57552Q1.75707 9.19727 1.94864 8.82945Q2.14021 8.46164 2.34942 8.10501Q2.55862 7.74838 2.78504 7.40366Q3.01145 7.05895 3.25461 6.72685Q3.49777 6.39475 3.75718 6.07595Q4.01659 5.75715 4.29172 5.45229Q4.56685 5.14743 4.85714 4.85714Q5.14743 4.56685 5.45229 4.29172Q5.75715 4.01659 6.07595 3.75718Q6.39475 3.49777 6.72685 3.25461Q7.05895 3.01145 7.40366 2.78504Q7.74838 2.55862 8.10501 2.34942Q8.46164 2.14021 8.82945 1.94864Q9.19727 1.75707 9.57552 1.58352Q9.95377 1.40997 10.3417 1.25481Q10.7296 1.09964 11.1264 0.96317Q11.5232 0.826699 11.928 0.709203Q12.3329 0.591707 12.745 0.493425Q13.1571 0.395143 13.5756 0.316276Q13.9941 0.237409 14.4181 0.178117Q14.8421 0.118826 15.2708 0.0792306Q15.6995 0.0396355 16.1321 0.0198178Q16.5646 0 17 0Z"/>
	<path fill="rgb(246,106,130)" stroke="none" transform="translate(17.5 135)" d="M12 0L173 0Q173.307 0 173.613 0.013989Q173.918 0.027978 174.221 0.0559275Q174.523 0.0838769 174.823 0.12573Q175.122 0.167583 175.417 0.223254Q175.713 0.278925 176.004 0.3483Q176.294 0.417676 176.58 0.500614Q176.866 0.583552 177.146 0.679885Q177.426 0.776217 177.7 0.885746Q177.974 0.995276 178.241 1.11778Q178.508 1.24028 178.767 1.37551Q179.027 1.51074 179.279 1.65841Q179.531 1.80609 179.774 1.96591Q180.017 2.12573 180.252 2.29737Q180.486 2.46902 180.711 2.65213Q180.936 2.83524 181.151 3.02945Q181.367 3.22366 181.571 3.42857Q181.776 3.63348 181.971 3.84868Q182.165 4.06387 182.348 4.28891Q182.531 4.51394 182.703 4.74837Q182.874 4.98279 183.034 5.22612Q183.194 5.46944 183.342 5.72118Q183.489 5.97292 183.625 6.23256Q183.76 6.49219 183.882 6.75919Q184.005 7.02619 184.114 7.30002Q184.224 7.57384 184.32 7.85393Q184.416 8.13401 184.499 8.41979Q184.582 8.70557 184.652 8.99646Q184.721 9.28735 184.777 9.58275Q184.832 9.87816 184.874 10.1775Q184.916 10.4768 184.944 10.7794Q184.972 11.082 184.986 11.3873Q185 11.6926 185 12L185 13Q185 13.3074 184.986 13.6127Q184.972 13.918 184.944 14.2206Q184.916 14.5232 184.874 14.8225Q184.832 15.1218 184.777 15.4173Q184.721 15.7127 184.652 16.0035Q184.582 16.2944 184.499 16.5802Q184.416 16.866 184.32 17.1461Q184.224 17.4262 184.114 17.7Q184.005 17.9738 183.882 18.2408Q183.76 18.5078 183.625 18.7674Q183.489 19.0271 183.342 19.2788Q183.194 19.5306 183.034 19.7739Q182.874 20.0172 182.703 20.2516Q182.531 20.4861 182.348 20.7111Q182.165 20.9361 181.971 21.1513Q181.776 21.3665 181.571 21.5714Q181.367 21.7763 181.151 21.9705Q180.936 22.1648 180.711 22.3479Q180.486 22.531 180.252 22.7026Q180.017 22.8743 179.774 23.0341Q179.531 23.1939 179.279 23.3416Q179.027 23.4893 178.767 23.6245Q178.508 23.7597 178.241 23.8822Q177.974 24.0047 177.7 24.1143Q177.426 24.2238 177.146 24.3201Q176.866 24.4165 176.58 24.4994Q176.294 24.5823 176.004 24.6517Q175.713 24.7211 175.417 24.7767Q175.122 24.8324 174.823 24.8743Q174.523 24.9161 174.221 24.9441Q173.918 24.972 173.613 24.986Q173.307 25 173 25L12 25Q11.6926 25 11.3873 24.986Q11.082 24.972 10.7794 24.9441Q10.4768 24.9161 10.1775 24.8743Q9.87816 24.8324 9.58275 24.7767Q9.28735 24.7211 8.99646 24.6517Q8.70557 24.5823 8.41979 24.4994Q8.13401 24.4165 7.85393 24.3201Q7.57384 24.2238 7.30002 24.1143Q7.02619 24.0047 6.75919 23.8822Q6.49219 23.7597 6.23256 23.6245Q5.97292 23.4893 5.72118 23.3416Q5.46944 23.1939 5.22612 23.0341Q4.98279 22.8743 4.74837 22.7026Q4.51394 22.531 4.28891 22.3479Q4.06387 22.1648 3.84868 21.9705Q3.63348 21.7763 3.42857 21.5714Q3.22366 21.3665 3.02945 21.1513Q2.83524 20.9361 2.65213 20.7111Q2.46902 20.4861 2.29737 20.2516Q2.12573 20.0172 1.96591 19.7739Q1.80609 19.5306 1.65841 19.2788Q1.51074 19.0271 1.37551 18.7674Q1.24028 18.5078 1.11778 18.2408Q0.995276 17.9738 0.885746 17.7Q0.776217 17.4262 0.679885 17.1461Q0.583552 16.866 0.500614 16.5802Q0.417676 16.2944 0.3483 16.0035Q0.278925 15.7127 0.223254 15.4172Q0.167583 15.1218 0.12573 14.8225Q0.0838769 14.5232 0.0559275 14.2206Q0.027978 13.918 0.013989 13.6127Q0 13.3074 0 13L0 12Q0 11.6926 0.013989 11.3873Q0.027978 11.082 0.0559275 10.7794Q0.0838769 10.4768 0.12573 10.1775Q0.167583 9.87816 0.223254 9.58275Q0.278925 9.28735 0.3483 8.99646Q0.417676 8.70557 0.500614 8.41979Q0.583552 8.13401 0.679885 7.85393Q0.776217 7.57384 0.885746 7.30002Q0.995276 7.02619 1.11778 6.75919Q1.24028 6.49219 1.37551 6.23256Q1.51074 5.97292 1.65841 5.72118Q1.80609 5.46944 1.96591 5.22612Q2.12573 4.98279 2.29737 4.74837Q2.46902 4.51394 2.65213 4.28891Q2.83524 4.06387 3.02945 3.84868Q3.22366 3.63348 3.42857 3.42857Q3.63348 3.22366 3.84868 3.02945Q4.06387 2.83524 4.28891 2.65213Q4.51394 2.46902 4.74837 2.29737Q4.98279 2.12573 5.22612 1.96591Q5.46944 1.80609 5.72118 1.65841Q5.97292 1.51074 6.23256 1.37551Q6.49219 1.24028 6.75919 1.11778Q7.02619 0.995276 7.30002 0.885746Q7.57384 0.776217 7.85393 0.679885Q8.13401 0.583552 8.41979 0.500614Q8.70557 0.417676 8.99646 0.3483Q9.28735 0.278925 9.58275 0.223254Q9.87816 0.167583 10.1775 0.12573Q10.4768 0.0838769 10.7794 0.0559275Q11.082 0.027978 11.3873 0.013989Q11.6926 0 12 0Z"/>

</svg>